<svg xmlns="http://www.w3.org/2000/svg" xmlns:xlink="http://www.w3.org/1999/xlink" id="svg" width="400" height="400" viewBox="0, 0, 400,400"><g id="svgg"><path id="path0" d="M166.556 20.240 C 123.353 23.602,88.905 60.186,88.889 102.722 L 88.889 104.222 190.582 104.222 L 292.276 104.222 292.128 101.167 C 290.073 58.744,260.019 26.146,217.778 20.522 C 214.637 20.103,171.368 19.865,166.556 20.240 " stroke="none" fill="#7ca4eb" fill-rule="evenodd"></path><path id="path1" d="M126.294 295.799 C 95.055 299.439,78.662 335.010,96.187 361.131 C 113.883 387.508,153.722 385.282,168.412 357.096 C 183.938 327.306,159.621 291.916,126.294 295.799 " stroke="none" fill="#84c3ac" fill-rule="evenodd"></path><path id="path2" d="M88.945 172.500 C 89.026 209.638,88.943 207.499,90.561 214.126 C 95.846 235.780,112.904 252.811,134.423 257.918 C 140.477 259.354,141.156 259.400,157.833 259.498 L 173.111 259.588 173.111 199.350 L 173.111 139.111 130.992 139.111 L 88.873 139.111 88.945 172.500 M208.000 259.444 L 208.000 379.778 209.278 379.776 C 248.603 379.716,283.526 350.242,290.774 310.997 C 292.191 303.328,292.090 309.871,292.164 220.389 L 292.232 139.111 250.116 139.111 L 208.000 139.111 208.000 259.444 " stroke="none" fill="#fc8c84" fill-rule="evenodd"></path></g></svg>